<svg width="48" height="32" viewBox="0 0 48 32" fill="none" xmlns="http://www.w3.org/2000/svg">
<g id="paypal-light-large">
<rect id="card_bg" width="48" height="32" rx="4" fill="#DFE3E8"/>
<g id="paypal">
<path id="Path" d="M20.34 25.3202L20.69 23.1202H19.91H16.23L18.79 6.86018C18.7968 6.8098 18.8217 6.76361 18.86 6.73018C18.9002 6.69911 18.9492 6.6816 19 6.68018H25.21C27.28 6.68018 28.7 7.11018 29.45 7.96018C29.7818 8.3167 30.0131 8.75498 30.12 9.23018C30.2366 9.80768 30.2366 10.4027 30.12 10.9802V11.4802L30.47 11.6802C30.7364 11.813 30.9769 11.9925 31.18 12.2102C31.4856 12.5792 31.683 13.0257 31.75 13.5002C31.8249 14.1204 31.7979 14.7487 31.67 15.3602C31.5381 16.103 31.2775 16.817 30.9 17.4702C30.5949 17.9938 30.1825 18.4471 29.69 18.8002C29.1942 19.1382 28.6423 19.3854 28.06 19.5302C27.4063 19.6951 26.7342 19.7757 26.06 19.7702H25.57C25.2266 19.7702 24.894 19.8905 24.63 20.1102C24.3646 20.3338 24.1903 20.6468 24.14 20.9902V21.1902L23.53 25.0702V25.2202C23.5372 25.2464 23.5372 25.274 23.53 25.3002H23.47L20.34 25.3202Z" fill="#253D80"/>
<path id="Path_2" d="M30.7998 11.0801L30.7398 11.4501C29.9198 15.6501 27.1098 17.1101 23.5298 17.1101H21.7098C21.2719 17.1095 20.8986 17.4276 20.8298 17.8601L19.8998 23.7801L19.6298 25.4601C19.6095 25.5946 19.6485 25.7313 19.7367 25.8349C19.825 25.9384 19.9537 25.9987 20.0898 26.0001H23.3298C23.7139 25.9997 24.0407 25.7197 24.0998 25.3401V25.1801L24.7098 21.3101V21.1001C24.7643 20.722 25.0878 20.4411 25.4698 20.4401H25.9998C29.1298 20.4401 31.5898 19.1701 32.2998 15.4401C32.6839 14.1652 32.4469 12.784 31.6598 11.7101C31.41 11.4539 31.1193 11.241 30.7998 11.0801V11.0801Z" fill="#189BD7"/>
<path id="Path_3" d="M29.9399 10.7398L29.5599 10.6398L29.1399 10.5598C28.6103 10.4807 28.0753 10.4439 27.5399 10.4498H22.6599C22.5459 10.4467 22.4328 10.4707 22.3299 10.5198C22.098 10.6284 21.9364 10.8464 21.8999 11.0998L20.8999 17.6698V17.8598C20.9688 17.4274 21.342 17.1093 21.7799 17.1098H23.5999C27.1799 17.1098 29.9899 15.6498 30.8099 11.4498L30.8699 11.0798C30.6545 10.9685 30.4304 10.8749 30.1999 10.7998L29.9399 10.7398Z" fill="#242E65"/>
<path id="Path_4" d="M21.8999 11.1C21.9364 10.8466 22.098 10.6286 22.3299 10.52C22.4328 10.4709 22.5459 10.4469 22.6599 10.45H27.5399C28.0753 10.444 28.6103 10.4808 29.1399 10.56L29.5599 10.64L29.9399 10.74L30.1299 10.8C30.3604 10.8751 30.5845 10.9687 30.7999 11.08C31.1249 9.83063 30.827 8.50118 29.9999 7.51C28.9999 6.45 27.3599 6 25.2199 6H18.9999C18.562 5.99947 18.1888 6.31756 18.1199 6.75L15.5299 23.16C15.5067 23.3148 15.5518 23.472 15.6535 23.5909C15.7551 23.7098 15.9034 23.7788 16.0599 23.78H19.8999L20.8999 17.67L21.8999 11.1Z" fill="#253D80"/>
</g>
</g>
</svg>
