<svg width="48" height="32" viewBox="0 0 48 32" fill="none" xmlns="http://www.w3.org/2000/svg">
<g id="visa-light-large">
<rect id="card_bg" width="48" height="32" rx="4" fill="#DFE3E8"/>
<path id="visa-logo" fill-rule="evenodd" clip-rule="evenodd" d="M30.3499 17.67C30.356 16.1452 29.0985 15.4867 28.1226 14.9756C27.5048 14.6521 26.9999 14.3876 26.9999 14C26.9999 13.67 27.3199 13.32 27.9999 13.23C28.8092 13.1499 29.625 13.2916 30.3599 13.64L30.7799 11.64C30.0635 11.3713 29.305 11.2325 28.5399 11.23C26.1799 11.23 24.5399 12.49 24.5399 14.29C24.5399 15.62 25.7299 16.36 26.6299 16.8C27.5299 17.24 27.8799 17.55 27.8699 17.95C27.8699 18.57 27.1299 18.85 26.4399 18.86C25.5888 18.8709 24.7489 18.6644 23.9999 18.26L23.5699 20.26C24.4174 20.5908 25.3202 20.7571 26.2299 20.75C28.7399 20.75 30.3899 19.51 30.3999 17.59L30.3499 17.67ZM23.8599 11.39L21.8599 20.64H19.4599L21.4599 11.39H23.8599ZM33.9199 17.39L35.1799 13.92L35.9099 17.39H33.9199ZM38.8099 20.67H36.5899L36.2999 19.29H33.2899L32.7999 20.67H30.2799L33.8699 12.1C34.0354 11.6922 34.4299 11.424 34.8699 11.42H36.8699L38.8099 20.67ZM16.6099 20.61L20.4899 11.36H17.8899L15.3999 17.65L14.3999 12.3C14.3114 11.7563 13.8407 11.3577 13.2899 11.36H9.21991L9.15991 11.63C9.97625 11.7897 10.7692 12.0518 11.5199 12.41C11.8397 12.5603 12.0564 12.8682 12.0899 13.22L13.9999 20.61H16.6099Z" fill="#2A2A6C"/>
</g>
</svg>
